<svg width="14" height="15" viewBox="0 0 14 15" fill="none" xmlns="http://www.w3.org/2000/svg">
<g clip-path="url(#clip0_439_516)">
<path d="M10.581 13.9005C10.5069 13.9753 10.4062 14.0177 10.301 14.0183C10.2488 14.0188 10.197 14.0086 10.1489 13.9883C10.1007 13.9681 10.0572 13.9382 10.021 13.9005L3.4186 7.28931C3.38152 7.25266 3.35208 7.20901 3.33199 7.16088C3.31189 7.11275 3.30154 7.0611 3.30154 7.00893C3.30154 6.95676 3.31189 6.90512 3.33199 6.85699C3.35208 6.80886 3.38152 6.7652 3.4186 6.72856L10.021 0.115941C10.0573 0.0770809 10.101 0.0459307 10.1496 0.0243443C10.1982 0.0027579 10.2506 -0.00882343 10.3037 -0.00971049C10.3569 -0.0105976 10.4096 -0.000772201 10.4589 0.0191808C10.5082 0.0391338 10.5529 0.0688067 10.5905 0.106434C10.6281 0.14406 10.6577 0.188872 10.6776 0.238202C10.6976 0.287532 10.7074 0.340372 10.7065 0.393577C10.7056 0.446782 10.694 0.499265 10.6725 0.547902C10.6509 0.596539 10.6198 0.640337 10.581 0.676689L4.2586 7.00893L10.581 13.3398C10.6179 13.3765 10.6472 13.4202 10.6672 13.4683C10.6872 13.5164 10.6975 13.568 10.6975 13.6201C10.6975 13.6723 10.6872 13.7239 10.6672 13.772C10.6472 13.8201 10.6179 13.8638 10.581 13.9005Z" fill="#8F8F8F"/>
</g>
<defs>
<clipPath id="clip0_439_516">
<rect width="14" height="15" fill="white" transform="matrix(-1 0 0 1 14 0)"/>
</clipPath>
</defs>
</svg>
