<?xml version="1.0" encoding="utf-8"?>
<!-- Generator: Adobe Illustrator 24.2.3, SVG Export Plug-In . SVG Version: 6.00 Build 0)  -->
<svg version="1.1" id="Слой_1" xmlns="http://www.w3.org/2000/svg" xmlns:xlink="http://www.w3.org/1999/xlink" x="0px" y="0px"
	 viewBox="0 0 595.28 841.89" style="enable-background:new 0 0 595.28 841.89;" xml:space="preserve">
<path d="M298.83,355.46c1.24,0,2.34,0,3.57,0c0,6.44,0,12.86,0,19.15c2.09,0.53,4.05,0.93,5.94,1.54c2.71,0.87,5.19,2.21,7.16,4.33
	c0.17,0.19,0.02,0.67,0.02,1.34c-1.92-1.96-3.92-3.09-6.13-3.97c-2.21-0.87-4.4-1.64-6.94-1.62c0,7.7,0,15.35,0,23.09
	c-1.26,0-2.38,0-3.62,0c0-7.72,0-15.34,0-23.07c-1.96,0-3.65,0.58-5.28,1.33c-2.78,1.28-4.96,3.32-6.66,5.8
	c-0.93,1.36-1.68,2.89-2.27,4.43c-1.89,4.97-1.85,10.17-1.07,15.27c0.83,5.45,3.44,10.04,8.22,13.17c3.25,2.13,6.84,2.6,10.62,2.4
	c3.8-0.2,7.31-1.29,10.67-3.05c0.68-0.35,0.67-0.76,0.67-1.31c0-5.44,0.01-10.88,0-16.31c0-2.09,0.04-2.13,2.16-2.11
	c0.4,0.01,0.79,0.04,1.3,0.06c0.03,0.48,0.07,0.91,0.07,1.34c0,5.2-0.02,10.4,0.02,15.59c0.01,0.96-0.37,1.57-1.13,2.01
	c-2.05,1.18-4.02,2.52-6.18,3.43c-1.77,0.75-3.76,0.99-5.66,1.43c-0.69,0.16-1.39,0.32-2.1,0.38c-2.83,0.24-5.6-0.09-8.35-0.82
	c-2.4-0.64-4.57-1.73-6.53-3.2c-2.59-1.95-4.5-4.46-5.86-7.43c-2.01-4.4-2.66-9.01-2.29-13.77c0.13-1.63,0.7-3.23,0.98-4.85
	c0.38-2.2,1.4-4.11,2.48-6.02c1.41-2.49,3.34-4.48,5.73-6.02c2.93-1.88,6.1-3.08,9.63-3.14c0.99-0.02,0.8-0.7,0.8-1.26
	c0.01-5.36,0.01-10.72,0.01-16.07C298.83,356.92,298.83,356.28,298.83,355.46z"/>
<path d="M315.17,454.14c-1.13-1.72-2.6-2.79-4.59-2.93c-1.81-0.12-3.61-0.21-5.2,1.09c-0.96,0.79-1.72,1.64-2.33,2.71
	c-0.92,1.62-0.84,3.39-0.59,5.07c0.33,2.2,2.36,4.88,5.09,5.37c1.79,0.32,3.51,0.32,5.09-0.59c1.52-0.88,2.51-2.23,2.83-4.01
	c0.12-0.65-0.16-0.87-0.77-0.87c-1.2,0.01-2.4,0.03-3.6-0.02c-0.89-0.03-1.72-0.21-1.45-1.54c2.49,0,4.99,0,7.49,0
	c0.89,2.63-1.46,6.49-3.55,7.75c-1.97,1.19-4,1.37-6.01,1.01c-2.49-0.44-4.61-1.8-5.81-4.16c-0.9-1.77-1.46-3.69-1.12-5.69
	c0.53-3.1,2.02-6.36,6.24-7.42c3.53-0.89,6.45-0.23,8.89,2.45C316.55,453.2,316.29,453.9,315.17,454.14z"/>
<path d="M230.78,453.69c0,2.25,0.02,4.5,0,6.75c-0.02,2.22-0.08,4.45-0.12,6.74c-0.6,0-0.94,0-1.36,0c0-5.89,0-11.77,0-17.66
	c0.09-0.05,0.17-0.1,0.26-0.15c4.09,4.72,8.18,9.44,12.5,14.42c0.05-0.91,0.12-1.51,0.12-2.12c0.01-3.52-0.01-7.04,0-10.56
	c0-0.52-0.2-1.21,0.72-1.2c0.92,0.01,0.69,0.72,0.7,1.22c0.01,5,0.01,10,0,15c0,0.37-0.06,0.75-0.09,1.12
	c-0.11,0.05-0.22,0.1-0.33,0.15c-3.99-4.59-7.99-9.18-11.98-13.78C231.06,453.65,230.92,453.67,230.78,453.69z"/>
<path d="M177.25,459.94c1.64,2.33,3.28,4.68,4.95,7.05c-1.47,0.48-1.7,0.37-2.46-0.77c-1.21-1.81-2.47-3.59-3.69-5.39
	c-0.68-0.99-1.62-0.95-2.77-0.74c0,2.34,0,4.68,0,6.99c-1.44,0.53-1.56-0.41-1.59-1.24c-0.06-2-0.03-3.99-0.03-5.99
	c0.01-2.95,0-5.9,0.09-8.85c0.01-0.42,0.49-1.15,0.81-1.18c2.57-0.26,5.13-0.39,7.38,1.32c2.6,1.98,2.23,6.12-0.48,7.8
	C178.86,459.29,178.18,459.52,177.25,459.94z M173.32,458.38c1,0,1.88,0.03,2.75-0.01c2.3-0.1,4.11-1.06,3.83-3.93
	c-0.12-1.2-0.56-1.95-1.5-2.61c-1.6-1.12-3.34-0.49-5.08-0.66C173.32,453.61,173.32,455.91,173.32,458.38z"/>
<path d="M345.65,459.96c1.66,2.34,3.33,4.69,5.02,7.07c-1.57,0.41-1.64,0.37-2.46-0.83c-1.2-1.74-2.42-3.46-3.61-5.2
	c-0.65-0.95-1.58-1.15-2.82-1.08c0,2.39,0,4.8,0,7.18c-1.39,0.19-1.65-0.02-1.65-1.39c-0.01-4.39-0.02-8.78,0.01-13.17
	c0.02-2.89,0.05-3.03,3.02-2.86c1.81,0.1,3.67,0.13,5.29,1.44c2.44,1.97,2.17,6.24-0.59,7.83
	C347.26,459.3,346.6,459.53,345.65,459.96z M341.85,451.21c0,2.46,0,4.78,0,7.17c0.9,0,1.7,0.01,2.49,0
	c2.72-0.06,4.37-1.27,3.99-4.21c-0.17-1.36-1.4-2.84-2.75-2.94C344.37,451.15,343.13,451.21,341.85,451.21z"/>
<path d="M441.84,465.49c1.79,0,3.46,0,5.13,0c0.48,0,0.96,0,1.44,0.01c1.37,0.03,1.56,0.38,0.97,1.7c-2.91,0-5.82,0-8.82,0
	c-0.05-0.51-0.14-0.98-0.14-1.44c-0.01-4.88,0.02-9.76-0.03-14.63c-0.01-1.14,0.52-1.49,1.49-1.5c2.08-0.01,4.16-0.01,6.24,0
	c0.27,0,0.59,0.03,0.8,0.18c0.35,0.25,0.63,0.61,0.94,0.92c-0.36,0.16-0.73,0.44-1.09,0.44c-2.23,0.04-4.47,0.02-6.89,0.02
	c0,1.71-0.05,3.33,0.05,4.95c0.01,0.24,0.68,0.62,1.06,0.64c1.52,0.07,3.04,0.02,4.56,0.04c0.39,0,0.84-0.01,1.16,0.16
	c0.32,0.17,0.52,0.56,0.77,0.85c-0.33,0.18-0.66,0.51-1,0.52c-1.88,0.05-3.76-0.01-5.64,0.06c-0.33,0.01-0.92,0.43-0.93,0.67
	C441.81,461.16,441.84,463.23,441.84,465.49z"/>
<path d="M265.29,467.13c2.53-5.97,5.01-11.81,7.63-17.98c1.81,2.91,2.68,6.01,3.97,8.92c1.31,2.96,2.75,5.86,3.73,9.03
	c-1.23,0.32-1.7-0.07-2.04-0.96c-1.03-2.7-2.15-5.36-3.22-8.04c-0.53-1.32-1.01-2.67-1.58-3.98c-0.17-0.39-0.54-0.7-0.8-1.02
	c-0.91,1.95-1.84,3.79-2.63,5.69c-0.9,2.18-1.69,4.41-2.48,6.64C267.26,467.15,267.1,467.31,265.29,467.13z"/>
<path d="M378.33,453.05c-0.9,1.96-1.77,3.76-2.54,5.6c-0.7,1.67-1.26,3.4-1.91,5.1c-0.41,1.05-0.79,2.13-1.36,3.09
	c-0.2,0.34-0.93,0.38-1.62,0.38c2.25-6.04,4.72-11.91,7.26-17.76c1.11,0.77,7.69,16.34,7.48,17.71c-0.92,0.23-1.4-0.08-1.72-1.03
	c-0.61-1.76-1.38-3.46-2.08-5.19c-0.91-2.26-1.79-4.53-2.72-6.78C378.97,453.76,378.61,453.43,378.33,453.05z"/>
<path d="M411.02,467.68c-0.59-1.18-1.08-2.11-1.5-3.06c-0.96-2.14-1.9-4.3-2.82-6.46c-1.02-2.42-2.02-4.85-2.96-7.29
	c-0.1-0.27,0.21-0.71,0.34-1.06c0.42,0.19,1.09,0.27,1.22,0.57c0.9,2.13,1.65,4.33,2.54,6.47c0.66,1.58,1.49,3.1,2.2,4.66
	c0.33,0.73,0.56,1.5,1.13,2.24c0.63-1.53,1.26-3.05,1.88-4.58c0.69-1.69,1.37-3.39,2.08-5.07c0.49-1.18,1.05-2.32,1.5-3.51
	c0.28-0.72,0.72-0.98,1.41-0.73c0.92,0.32,0.35,0.79,0.12,1.28c-0.69,1.51-1.34,3.05-1.98,4.58c-0.69,1.65-1.32,3.32-2.01,4.96
	c-0.69,1.64-1.41,3.27-2.12,4.9C411.78,466.18,411.47,466.76,411.02,467.68z"/>
<path d="M148.26,458.44c0,2.55,0.03,5.1-0.03,7.66c-0.01,0.39-0.41,0.76-0.64,1.15c-0.29-0.35-0.77-0.68-0.82-1.06
	c-0.13-0.94-0.08-1.91-0.08-2.86c0-3.91,0-7.82,0-11.72c0-0.36-0.07-0.76,0.07-1.06c0.14-0.31,0.5-0.51,0.77-0.77
	c0.24,0.3,0.68,0.59,0.69,0.9c0.06,1.95,0.03,3.91,0.03,5.86C148.26,457.17,148.26,457.8,148.26,458.44z"/>
<path d="M204.26,467.18c-0.03-0.48-0.09-0.91-0.09-1.35c-0.01-4.91-0.01-9.81,0-14.72c0-0.57-0.16-1.41,0.72-1.28
	c0.37,0.06,0.88,0.9,0.89,1.39c0.07,4.78,0.06,9.57,0.02,14.36C205.79,466.38,205.82,467.47,204.26,467.18z"/>
</svg>
