<svg width="38" height="41" viewBox="0 0 38 41" fill="none" xmlns="http://www.w3.org/2000/svg">
<g clip-path="url(#clip0_439_533)">
<path d="M28.7203 37.9961C28.5192 38.2005 28.2459 38.3163 27.9603 38.3179C27.8186 38.3193 27.678 38.2914 27.5474 38.2361C27.4167 38.1807 27.2986 38.099 27.2003 37.9961L9.27949 19.9254C9.17884 19.8252 9.09893 19.7059 9.04438 19.5744C8.98984 19.4428 8.96175 19.3016 8.96175 19.159C8.96175 19.0165 8.98984 18.8753 9.04438 18.7437C9.09893 18.6122 9.17884 18.4929 9.27949 18.3927L27.2003 0.318208C27.2988 0.21199 27.4175 0.126846 27.5494 0.0678431C27.6812 0.00884035 27.8235 -0.0228153 27.9677 -0.0252399C28.1119 -0.0276646 28.2552 -0.000808598 28.3889 0.0537297C28.5226 0.108268 28.6441 0.189374 28.7461 0.292221C28.8481 0.395067 28.9285 0.517553 28.9826 0.652388C29.0367 0.787223 29.0633 0.931652 29.0609 1.07708C29.0585 1.22251 29.0271 1.36596 28.9686 1.4989C28.9101 1.63184 28.8256 1.75156 28.7203 1.85092L11.5595 19.159L28.7203 36.4634C28.8205 36.5638 28.9 36.6832 28.9542 36.8147C29.0085 36.9462 29.0364 37.0873 29.0364 37.2297C29.0364 37.3722 29.0085 37.5132 28.9542 37.6447C28.9 37.7762 28.8205 37.8956 28.7203 37.9961Z" fill="#8F8F8F"/>
</g>
<defs>
<clipPath id="clip0_439_533">
<rect width="38" height="41" fill="white" transform="matrix(-1 0 0 1 38 0)"/>
</clipPath>
</defs>
</svg>
