<svg width="55" height="55" viewBox="0 0 55 55" fill="none" xmlns="http://www.w3.org/2000/svg">
<g clip-path="url(#clip0_439_287)">
<path d="M41.5007 13.4999C41.0711 13.0703 40.3747 13.0704 39.9451 13.4999L27.5 25.945L15.0549 13.5C14.6253 13.0704 13.9288 13.0704 13.4993 13.5C13.0697 13.9295 13.0697 14.626 13.4993 15.0556L25.9443 27.5006L13.4993 39.9457C13.0697 40.3753 13.0697 41.0717 13.4993 41.5013C13.9289 41.9309 14.6253 41.9309 15.0549 41.5013L27.5 29.0563L39.945 41.5013C40.3746 41.9309 41.0711 41.9309 41.5007 41.5013C41.9303 41.0718 41.9303 40.3753 41.5007 39.9457L29.0556 27.5006L41.5007 15.0555C41.9303 14.626 41.9303 13.9295 41.5007 13.4999Z" fill="#8F8F8F"/>
</g>
<defs>
<clipPath id="clip0_439_287">
<rect width="55" height="55" fill="white"/>
</clipPath>
</defs>
</svg>
