<?xml version="1.0" encoding="utf-8"?>
<!-- Generator: Adobe Illustrator 19.2.1, SVG Export Plug-In . SVG Version: 6.00 Build 0)  -->
<svg version="1.1" id="layer" xmlns="http://www.w3.org/2000/svg" xmlns:xlink="http://www.w3.org/1999/xlink" x="0px" y="0px"
	 viewBox="0 0 652 652" style="enable-background:new 0 0 652 652;" xml:space="preserve">
<path d="M146.8,257c-24.3,0-42,32.1-42,69.2c0,37.9,18.8,68.8,42,68.8s42.1-30.9,42.1-68.8C188.8,287.9,170,257,146.8,257z
	 M161.1,387.3c-3.7,5.4-9,6.7-14.3,6.7c-5.1,0-10.4-1.3-14.1-6.7c-6.2-9.1-8.9-23.7-8.9-61.1c0-32.9,2.7-52,8.9-61.1
	c3.7-5.5,8.9-6.7,14.1-6.7c5.3,0,10.6,1,14.3,6.7c6.2,9.1,8.9,28.2,8.9,61.1C170,363.6,167.3,378.2,161.1,387.3z M252,260.7V299
	c0,0.3-0.5,0.3-0.5,0c0-17.3-8.7-37.7-24.8-37.6h-12.8c-0.5,0-0.8,0.2-0.8,0.7v61.6h2.2c10.4,0,17.8-12.2,17.8-24.9
	c0-0.3,0.5-0.3,0.5,0v50.9c0,0.3-0.5,0.3-0.5,0c0-12.6-7.4-24.9-17.8-24.9h-2.2v65.2c0,0.5,0.3,0.7,0.8,0.7h11.4c0,0,0,0,0,0
	c0.3,0,0.5,0.3,0.5,0.6c0,0.3-0.2,0.6-0.5,0.6v0h0c0,0,0,0,0,0c0,0,0,0,0,0h-41.5c0,0,0,0,0,0c0,0,0,0,0,0h0c0,0,0,0,0,0
	c-0.2,0-0.4-0.3-0.4-0.6s0.2-0.5,0.4-0.6c0,0,0,0,0,0h11.4c0.7,0,0.8-0.2,0.8-0.7V262.1c0-0.5-0.3-0.7-0.8-0.7h-11.3c0,0,0,0,0,0
	c0,0,0,0,0,0h0c-0.3,0-0.4-0.3-0.4-0.6c0,0,0,0,0,0l0,0c0-0.3,0.1-0.6,0.4-0.6h68C251.9,260.2,252,260.5,252,260.7z M87.7,304.3
	c2-0.8,3.9-2,5-3.4c3.9-3.9,6-8.4,6-12.6c0-4.2-1.8-8.2-5.7-11.6c-2-1.7-3.9-4.9-3.9-8.9c0-5.9,3.9-10.9,8.7-10.9
	c6,0,9.1,5.2,9.2,13.8c0,10.4-9.2,30.6-19.3,34.4C87.5,305.4,87.5,304.5,87.7,304.3z M98.8,347.5v43.6c0,0.5-0.2,0.7-0.3,0.7h-71
	c0,0,0,0,0,0c0,0,0,0,0,0h0c-0.1,0-0.1-0.1-0.1-0.1c-0.2-0.1-0.3-0.3-0.3-0.5c0-0.3,0.2-0.5,0.4-0.6c0,0,0,0,0.1,0h11
	c0.5,0,0.8-0.2,0.8-0.7V262.1c0-0.5-0.3-0.7-0.8-0.7H27c0,0,0,0,0,0c0,0,0,0,0,0h-0.1c0,0,0,0-0.1-0.1c-0.2-0.1-0.3-0.3-0.3-0.5
	c0-0.3,0.1-0.4,0.3-0.5c0,0,0.1-0.1,0.1-0.1h41.6c0.7,0,0.7,1.2,0,1.2H57.2c-0.5,0-0.8,0.2-0.8,0.7v127.9c0,0.5,0.3,0.7,0.8,0.7
	h12.9c19.6,0,28.2-24.1,28.2-43.1C98.3,347.1,98.8,347.1,98.8,347.5z M433,345.8v48.8c0,0.2-0.3,0.2-0.3,0c-0.3-2.2-2.4-5.5-5.9-5.5
	c-5.9,0-15.4,5.9-22.7,5.9c-24.5,0-42.6-32.1-42.6-68.8c0-37.1,17.6-69.2,42.1-69.2c6.2,0,14.3,5,20.1,5c3.5,0,6-2.5,6.4-4.5
	c0-0.3,0.5-0.3,0.5,0V301c0,0.3-0.5,0.3-0.5,0c0-18.5-13.9-42.6-26.7-42.6c-5.9,0-10.6,1.1-14.3,6.7c-6.2,9.1-8.7,28.2-8.7,61.1
	c0,32.7,2.5,52,8.7,61.1c3.7,5.4,9.1,6.7,14.9,6.7c15.8,0,28.5-23.8,28.5-48.2C432.7,345.5,433,345.5,433,345.8z M321.9,260.7V299
	c0,0.3-0.5,0.3-0.5,0c0-17.3-8.7-37.7-25-37.6h-12.8c-0.5,0-0.8,0.2-0.8,0.7v61.6h2.2c10.4,0,17.8-12.1,17.8-24.9
	c0-0.3,0.5-0.3,0.5,0v50.9c0,0.3-0.5,0.3-0.5,0c0-12.6-7.4-24.9-17.8-24.9h-2.2v65.1c0,0.5,0.3,0.7,0.8,0.7H295c0,0,0,0,0,0
	c0.2,0.1,0.4,0.3,0.4,0.6c0,0.3-0.2,0.5-0.4,0.6c0,0,0,0,0,0h0c0,0,0,0,0,0s0,0,0,0h-41.5c0,0,0,0,0,0s0,0,0,0h0c0,0,0,0,0,0
	c-0.2-0.1-0.4-0.3-0.4-0.6c0-0.3,0.2-0.5,0.4-0.6c0,0,0,0,0,0h11.4c0.7,0,0.8-0.2,0.8-0.7V262.1c0-0.5-0.3-0.7-0.8-0.7h-11.3
	c0,0,0,0,0,0s0,0,0,0h-0.1c0,0,0,0-0.1-0.1c-0.2-0.1-0.4-0.3-0.4-0.5c0-0.3,0.2-0.4,0.3-0.5c0,0,0-0.1,0.1-0.1h68.2
	C321.7,260.2,321.9,260.5,321.9,260.7z M626.5,347.7v43.6c0,0.3,0,0.5-0.3,0.5h-71.4c0,0,0,0,0,0s0,0,0,0h-0.1c0,0,0,0-0.1-0.1
	c-0.2-0.1-0.4-0.3-0.4-0.5c0-0.3,0.2-0.5,0.3-0.5c0,0,0-0.1,0.1-0.1h11.4c0.5,0,0.8-0.2,0.8-0.7V262.1c0-0.5-0.3-0.7-0.8-0.7h-11.4
	c0,0,0,0,0,0s0,0,0,0h0l0,0c-0.3,0-0.5-0.3-0.5-0.6c0-0.3,0.2-0.6,0.4-0.6c0,0,0,0,0,0h41.6c0,0,0,0.1,0,0.1
	c0.2,0.1,0.3,0.3,0.3,0.5s-0.1,0.4-0.3,0.5c0,0,0,0.1,0,0.1h-0.1c0,0,0,0,0,0s0,0,0,0h-11.3c-0.5,0-0.8,0.2-0.8,0.7v127.9
	c0,0.5,0.3,0.7,0.8,0.7h12.9c19.6,0,28.2-24,28.2-42.9C626,347.3,626.5,347.3,626.5,347.7z M553.2,349.3v42c0,0.3-0.2,0.5-0.3,0.5
	h-0.3h-74.7c0,0,0,0,0,0s0,0,0,0h-0.1c0,0,0,0-0.1-0.1c-0.2-0.1-0.4-0.3-0.4-0.5c0-0.3,0.2-0.4,0.3-0.5c0,0,0-0.1,0.1-0.1h11.4
	c0.5,0,0.8-0.2,0.8-0.7V262.1c0-0.5-0.2-0.7-0.8-0.7h-11.3c0,0,0,0,0,0s0,0,0,0h-0.1c0,0,0,0-0.1-0.1c-0.2-0.1-0.4-0.3-0.4-0.5
	c0-0.3,0.1-0.4,0.3-0.5c0,0,0-0.1,0.1-0.1H546c0.3,0,0.3,0.3,0.3,0.5v38.4c0,0.3-0.5,0.3-0.5,0c0-17.3-8.6-37.7-24.7-37.7h-12.8
	c-0.5,0-0.8,0.2-0.8,0.7v61.6h3.4c10.4,0,18-12.1,18-24.9c0-0.3,0.3-0.3,0.3,0v50.9c0,0.3-0.3,0.3-0.3,0c0-12.6-7.6-24.9-18-24.9
	h-3.4v65.1c0,0.5,0.2,0.7,0.8,0.7h13.1c21.3,0,31.2-22.1,31.2-41.3C552.7,349,553.2,349,553.2,349.3z M365.4,391.2
	c0,0.3-0.2,0.4-0.3,0.5c0,0,0,0.1,0,0.1h-0.1c0,0,0,0,0,0c0,0,0,0,0,0h-41.4c0,0,0,0,0,0s0,0,0,0h-0.1c0,0,0,0-0.1-0.1
	c-0.2-0.1-0.4-0.3-0.4-0.5c0-0.3,0.2-0.4,0.3-0.5c0,0,0-0.1,0.1-0.1h11.4c0.5,0,0.8-0.2,0.8-0.7V262.1c0-0.5-0.3-0.7-0.8-0.7h-11.4
	c0,0,0,0,0,0c0,0,0,0,0,0h0c0,0,0,0,0,0c-0.2-0.1-0.4-0.3-0.4-0.6c0-0.3,0.2-0.5,0.4-0.6c0,0,0-0.1,0.1-0.1H365c0,0,0,0.1,0,0.1
	c0.2,0.1,0.3,0.3,0.3,0.5s-0.1,0.4-0.3,0.5c0,0,0,0.1,0,0.1h-0.1c0,0,0,0,0,0c0,0,0,0,0,0h-11.3c-0.5,0-0.8,0.2-0.8,0.7v127.9
	c0,0.5,0.3,0.7,0.8,0.7H365c0,0,0,0.1,0,0.1C365.2,390.8,365.4,390.9,365.4,391.2z M476.1,391.2c0,0.3-0.2,0.5-0.4,0.6c0,0,0,0,0,0
	h0c0,0,0,0,0,0s0,0,0,0h-41.4c0,0,0,0,0,0c0,0,0,0,0,0H434c0,0,0-0.1,0-0.1c-0.2-0.1-0.3-0.3-0.3-0.5c0-0.2,0.1-0.4,0.3-0.5
	c0,0,0-0.1,0.1-0.1h11.4c0.5,0,0.8-0.2,0.8-0.7V262.1c0-0.5-0.3-0.7-0.8-0.7h-11.3c0,0,0,0,0,0c0,0,0,0,0,0H434c0,0,0-0.1,0-0.1
	c-0.2-0.1-0.3-0.3-0.3-0.5c0-0.3,0.1-0.4,0.3-0.5c0,0,0-0.1,0-0.1h41.6c0,0,0.1,0.1,0.1,0.1c0.2,0.1,0.3,0.3,0.3,0.5
	c0,0.3-0.1,0.4-0.3,0.5c0,0,0,0.1-0.1,0.1h-0.1c0,0,0,0,0,0s0,0,0,0h-11.3c-0.5,0-0.8,0.2-0.8,0.7v127.9c0,0.5,0.3,0.7,0.8,0.7h11.4
	c0,0,0,0,0.1,0.1C475.9,390.7,476.1,390.9,476.1,391.2z"/>
</svg>
