<svg id="Слой_1" data-name="Слой 1" xmlns="http://www.w3.org/2000/svg" viewBox="0 0 109.94 186.3">
  <path d="M300.05,327h10.27v55.12c6,1.52,11.66,2.67,17.1,4.43,7.8,2.5,14.94,6.36,20.61,12.46.49.55.06,1.93.06,3.86a48.66,48.66,0,0,0-17.65-11.43c-6.36-2.5-12.66-4.72-20-4.66v66.46H300.05v-66.4c-5.64,0-10.51,1.67-15.2,3.82a47.33,47.33,0,0,0-19.17,16.7,62.37,62.37,0,0,0-6.53,12.75c-5.44,14.3-5.32,29.27-3.08,44,2.39,15.68,9.9,28.89,23.66,37.9,9.35,6.13,19.69,7.49,30.57,6.91A73.65,73.65,0,0,0,341,500.13c1.95-1,1.92-2.18,1.92-3.77,0-15.66,0-31.31,0-46.94,0-6,.12-6.13,6.22-6.07,1.15,0,2.28.11,3.74.17.09,1.38.2,2.62.2,3.86,0,15,0,29.93.06,44.87A6,6,0,0,1,349.9,498c-5.9,3.4-11.57,7.25-17.79,9.87-5.09,2.16-10.82,2.85-16.29,4.12a42.47,42.47,0,0,1-6,1.09,70,70,0,0,1-24-2.36,54.34,54.34,0,0,1-35.66-30.59c-5.78-12.67-7.65-25.93-6.59-39.63.38-4.7,2-9.3,2.82-14,1.1-6.34,4-11.83,7.14-17.33a49.34,49.34,0,0,1,16.49-17.33c8.44-5.41,17.56-8.86,27.72-9,2.85-.06,2.3-2,2.3-3.63q0-23.14,0-46.25C300.05,331.24,300.05,329.4,300.05,327Z" transform="translate(-243.21 -327.04)"/>
</svg>
