<svg width="118" height="81" viewBox="0 0 118 81" fill="none" xmlns="http://www.w3.org/2000/svg">
<g clip-path="url(#clip0_16_314)">
<path fill-rule="evenodd" clip-rule="evenodd" d="M0 76.9761H12.626V76.4144H6.78498C7.25698 75.1928 15.5432 52.245 15.5432 52.245H39.5234C39.5234 52.245 47.7179 74.9642 48.2358 76.4144H40.415V76.9761H61.3338L33.8004 0L6.20157 76.4274H0V76.9892V76.9761ZM15.6874 51.6767L27.4874 18.9631L39.2874 51.6767H15.6874Z" fill="black"/>
<path fill-rule="evenodd" clip-rule="evenodd" d="M61.2879 76.9762H79.6434C100.844 76.9762 117.987 64.4931 117.987 39.1936C117.987 14.2208 101.598 1.26733 79.4074 1.26733H53.4671V1.82258H61.2879V76.9435V76.9762ZM73.3894 76.4602V1.87483H78.1029C83.662 1.87483 88.2771 2.20144 91.7122 3.83451C101.041 8.24378 104.246 19.6556 104.246 39.1806C104.246 57.7191 99.5854 68.6998 91.9548 73.6774C88.4213 75.8853 83.5243 76.4471 79.1845 76.4471L73.3894 76.4602Z" fill="black"/>
</g>
<defs>
<clipPath id="clip0_16_314">
<rect width="118" height="81" fill="white"/>
</clipPath>
</defs>
</svg>
