<svg width="90" height="85" viewBox="0 0 90 85" fill="none" xmlns="http://www.w3.org/2000/svg">
<path d="M68.3445 41.0962L35.3445 20.0247C34.884 19.7325 34.29 19.7002 33.798 19.9432C33.3075 20.1862 33 20.6639 33 21.185V63.3281C33 63.8492 33.3075 64.3269 33.7995 64.5699C34.0185 64.6794 34.26 64.7328 34.5 64.7328C34.7955 64.7328 35.091 64.6499 35.3445 64.4884L68.3445 43.4169C68.754 43.1556 69 42.7215 69 42.2566C69 41.7916 68.754 41.3575 68.3445 41.0962ZM36 60.6688V23.8443L64.8375 42.2566L36 60.6688Z" fill="white"/>
<path d="M45 0.113525C20.187 0.113525 0 19.0189 0 42.2565C0 65.4942 20.187 84.3996 45 84.3996C69.813 84.3996 90 65.4942 90 42.2565C90 19.0189 69.813 0.113525 45 0.113525ZM45 81.59C21.8415 81.59 3 63.9448 3 42.2565C3 20.5683 21.8415 2.92306 45 2.92306C68.1585 2.92306 87 20.5683 87 42.2565C87 63.9448 68.1585 81.59 45 81.59Z" fill="white"/>
</svg>
